<?xml version="1.0" standalone="no"?>
<!DOCTYPE svg PUBLIC "-//W3C//DTD SVG 20010904//EN"
 "http://www.w3.org/TR/2001/REC-SVG-20010904/DTD/svg10.dtd">
<svg version="1.0" xmlns="http://www.w3.org/2000/svg"
 width="512.000000pt" height="512.000000pt" viewBox="0 0 512.000000 512.000000"
 preserveAspectRatio="xMidYMid meet">
<metadata>
Created by potrace 1.11, written by Peter Selinger 2001-2013
</metadata>
<g transform="translate(0.000000,512.000000) scale(0.100000,-0.100000)"
fill="#000000" stroke="none">
<path d="M2133 5049 c-141 -69 -59 -252 92 -205 15 5 27 -4 52 -36 18 -24 44
-56 59 -73 45 -52 80 -107 133 -212 28 -57 51 -104 51 -105 0 -2 -154 -3 -342
-2 -189 0 -348 -1 -354 -3 -8 -3 -11 -153 -10 -529 l1 -524 608 0 c334 0 684
0 777 0 l170 0 0 528 0 528 -267 -1 c-148 0 -276 1 -285 3 -15 4 -15 7 2 40
10 21 30 62 44 92 14 30 49 83 77 118 48 58 55 63 85 59 25 -4 40 2 63 22 35
30 41 58 22 94 -27 51 -85 55 -129 11 -29 -29 -33 -38 -27 -64 6 -26 1 -37
-27 -69 -66 -75 -79 -93 -142 -198 l-65 -108 -48 0 c-42 0 -49 3 -68 32 -67
106 -95 154 -95 163 0 5 -4 10 -10 10 -5 0 -10 4 -10 10 0 19 -80 124 -144
189 -54 55 -63 69 -54 85 17 30 11 82 -13 115 -36 49 -86 60 -146 30z m162
-820 c53 -25 100 -76 128 -138 38 -87 8 -213 -68 -279 -100 -88 -236 -87 -341
1 -79 66 -103 203 -54 301 62 122 211 173 335 115z m809 0 c53 -24 109 -83
131 -135 17 -41 20 -159 5 -169 -6 -4 -8 -10 -6 -14 8 -12 -49 -90 -85 -117
-73 -54 -182 -63 -262 -23 -174 89 -194 325 -36 435 79 54 169 63 253 23z"/>
<path d="M2133 4115 c-63 -27 -91 -112 -58 -175 37 -72 138 -90 196 -34 68 65
53 166 -33 210 -34 17 -64 17 -105 -1z"/>
<path d="M2940 4112 c-39 -19 -70 -71 -70 -117 0 -70 76 -134 144 -120 124 26
151 170 44 235 -41 25 -73 25 -118 2z"/>
<path d="M1696 4115 c-42 -17 -87 -64 -108 -113 -56 -126 15 -261 151 -288
l31 -6 0 211 0 211 -23 -2 c-13 -1 -36 -7 -51 -13z"/>
<path d="M3424 3920 l0 -211 27 5 c107 16 187 122 173 228 -9 76 -70 148 -147
177 -54 21 -52 26 -53 -199z"/>
<path d="M4613 3760 c-65 -22 -105 -73 -105 -134 -1 -40 -4 -46 -19 -41 -27 9
-39 -23 -30 -84 0 -5 12 -23 26 -39 13 -16 21 -33 17 -37 -4 -5 -1 -5 6 -1 7
4 78 -28 171 -78 88 -48 171 -86 186 -86 32 0 82 27 90 49 4 9 -2 22 -12 29
-13 11 -15 16 -5 19 54 20 98 95 89 153 -6 34 -45 120 -55 120 -4 0 -29 -43
-56 -95 -52 -101 -58 -105 -108 -70 -17 11 -14 19 28 101 25 49 50 93 55 98
20 22 7 44 -40 69 l-49 27 -42 -82 c-23 -46 -51 -97 -62 -115 l-19 -32 -34 21
c-19 11 -35 22 -35 23 0 2 23 46 50 98 28 52 50 96 50 99 0 9 -54 3 -97 -12z"/>
<path d="M371 3467 l-44 -9 40 -41 c22 -23 59 -62 81 -87 l42 -44 -31 -33 -32
-32 -26 32 c-14 17 -35 43 -46 56 -45 55 -88 101 -94 101 -3 0 -26 -18 -49
-40 l-44 -39 64 -73 c34 -40 73 -83 86 -96 l23 -24 -27 -29 c-15 -16 -31 -29
-35 -29 -7 0 -93 87 -138 139 -12 13 -24 22 -26 19 -16 -15 -21 -109 -9 -145
16 -45 64 -91 103 -99 22 -5 27 -10 24 -25 -4 -14 3 -23 28 -33 46 -19 78 -11
127 32 22 21 90 82 151 137 61 55 114 108 117 118 8 25 -3 77 -21 101 -13 17
-15 17 -30 2 -18 -17 -26 -21 -23 -8 1 4 -1 24 -5 44 -9 42 -62 94 -105 103
-50 11 -57 11 -101 2z"/>
<path d="M4384 3147 c-64 -100 -122 -185 -127 -188 -22 -15 8 -38 137 -101 75
-38 140 -68 145 -68 4 0 41 80 81 178 39 97 80 194 90 215 l18 37 -87 41 c-47
23 -98 48 -112 55 l-27 13 -118 -182z"/>
<path d="M1890 3262 c-47 -6 -95 -25 -130 -52 -32 -24 -38 -26 -64 -15 -38 16
-85 11 -123 -12 -17 -10 -106 -91 -199 -179 -93 -89 -193 -184 -223 -211 l-54
-50 79 -89 c43 -49 85 -95 91 -102 11 -11 46 19 195 167 99 100 183 179 186
176 3 -2 5 -296 6 -652 l1 -648 27 -51 c50 -95 129 -141 248 -146 l75 -3 0
-505 0 -505 -81 -1 c-65 -1 -89 -6 -116 -22 -50 -31 -58 -57 -58 -196 l0 -123
368 1 367 1 1 165 c0 91 -4 168 -9 171 -5 4 -33 5 -63 3 -45 -2 -54 0 -55 14
0 9 -1 238 -1 507 l-1 490 239 0 239 0 1 -110 c1 -70 -2 -115 -10 -124 -7 -10
-7 -12 0 -8 8 4 11 -104 11 -373 0 -267 -3 -380 -11 -383 -6 -3 -35 -3 -64 -2
l-52 2 0 -172 0 -172 348 -1 c191 0 356 1 367 3 19 4 21 11 20 122 0 98 -4
123 -20 151 -29 48 -80 69 -164 67 l-71 -2 0 502 0 502 65 1 c106 0 184 37
237 112 48 66 49 81 48 739 l0 619 32 6 c17 3 36 2 42 -2 11 -9 174 -95 344
-182 45 -24 84 -41 86 -39 2 2 29 54 60 116 l56 112 -103 57 c-56 31 -120 67
-142 79 -22 12 -76 42 -120 66 -44 23 -97 53 -117 66 -57 35 -119 49 -162 36
-29 -9 -38 -8 -53 6 -29 27 -88 58 -124 67 -31 7 -1392 13 -1449 6z"/>
<path d="M563 2997 c-44 -40 -83 -76 -86 -82 -3 -8 113 -172 238 -333 l33 -43
79 69 c43 38 91 79 107 93 16 13 37 33 48 44 18 19 18 20 -10 45 -16 14 -93
81 -171 150 -78 69 -145 126 -149 127 -4 1 -44 -30 -89 -70z"/>
<path d="M4144 2741 l-70 -129 105 -51 c130 -63 165 -70 211 -39 18 13 38 32
44 43 6 11 13 22 16 25 3 3 17 31 32 62 l27 57 -52 29 c-29 16 -95 52 -148 80
l-96 52 -69 -129z"/>
<path d="M928 2587 l-117 -112 34 -39 c19 -21 32 -43 28 -49 -3 -5 -2 -7 4 -4
6 4 21 -5 34 -19 49 -53 104 -62 160 -26 15 9 60 49 102 88 l75 70 -37 40
c-20 22 -60 68 -90 102 -29 34 -58 62 -65 62 -6 -1 -64 -51 -128 -113z"/>
</g>
</svg>
